<svg xmlns="http://www.w3.org/2000/svg" viewBox="0 0 48.03 82.89" width="48.03px" height="82.89px"><defs><style>.a{fill:#062942;fill-opacity:0.08;}.b{fill:#eaf6fe;}</style></defs><title>arrow-left</title><path class="a" d="M43.09,0H0V82.88H43.09A4.94,4.94,0,0,0,48,77.94v-73A4.94,4.94,0,0,0,43.09,0Z"/><path class="b" d="M31.51,23.55a2.66,2.66,0,0,0,.23-1.11,2.72,2.72,0,0,0-.83-2,2.78,2.78,0,0,0-2-.83,2.91,2.91,0,0,0-1.11.21,2.36,2.36,0,0,0-.88.62l-17.1,17a3.68,3.68,0,0,0-.6.93,2.79,2.79,0,0,0,0,2.22,3,3,0,0,0,.6.88l17.1,17.1a3,3,0,0,0,.88.6,2.66,2.66,0,0,0,1.12.23,2.85,2.85,0,0,0,2.88-2.82h0v-.06a2.71,2.71,0,0,0-.23-1.09,2.89,2.89,0,0,0-.6-.9L15.81,39.53l15.1-15.05A3.68,3.68,0,0,0,31.51,23.55Z"/></svg>
