<svg xmlns="http://www.w3.org/2000/svg" viewBox="0 0 101.07 18.75"><defs><style>.a{fill:#bdbcbc;}</style></defs><title>bloomberg</title><path class="a" d="M90.51,15.16h3.65a1.46,1.46,0,0,0,1.53.92c1.22,0,1.65-.76,1.65-1.89v-0.8H97.25a3.25,3.25,0,0,1-2.59,1.22c-2.33,0-4.35-1.73-4.35-5.1C90.31,6.42,92,4,94.48,4a3.15,3.15,0,0,1,2.91,1.55h0.06V4.34h3.61v9.35a5.07,5.07,0,0,1-1.48,3.87,5.6,5.6,0,0,1-3.81,1.18c-2.87,0-4.88-1.18-5.24-3.59m7-5.82c0-1.34-.64-2.43-1.74-2.43S94,7.9,94,9.33s0.68,2.49,1.75,2.49,1.74-1.06,1.74-2.49M86.28,6.19h0.06a3.29,3.29,0,0,1,3.11-2.07,1.46,1.46,0,0,1,.62.1V7.56H90c-2.23-.4-3.53.66-3.53,3.09v4.51h-3.8V4.34h3.61V6.19ZM0,0H7.43a5,5,0,0,1,3.25,1A3.72,3.72,0,0,1,12,4a2.89,2.89,0,0,1-1.79,2.91h0a3.64,3.64,0,0,1,2.47,3.63A4.38,4.38,0,0,1,11,14.21a5.74,5.74,0,0,1-3.45.93H0V0ZM7.07,11.79a1.45,1.45,0,0,0,1.56-1.54A1.46,1.46,0,0,0,7.27,8.7H4.12v3.09h3ZM6.69,5.93A1.25,1.25,0,0,0,8.07,4.56,1.25,1.25,0,0,0,6.86,3.27H4.12V5.93H6.69ZM13.36,0h3.89V15.14H13.36V0ZM18,9.76A5.34,5.34,0,0,1,23.58,4C27,4,29.16,6.35,29.16,9.76S27,15.48,23.58,15.48A5.33,5.33,0,0,1,18,9.76m7.34,0c0-1.89-.6-3.07-1.77-3.07s-1.72,1.18-1.72,3.07,0.56,3.09,1.72,3.09,1.77-1.18,1.77-3.09m4.34,0A5.34,5.34,0,0,1,35.26,4c3.41,0,5.58,2.31,5.58,5.72s-2.17,5.72-5.58,5.72a5.33,5.33,0,0,1-5.62-5.72m7.34,0c0-1.89-.6-3.07-1.77-3.07s-1.72,1.18-1.72,3.07,0.56,3.09,1.72,3.09S37,11.67,37,9.76m4.6-5.42h3.61V6h0.06A3.46,3.46,0,0,1,48.5,4a3,3,0,0,1,2.91,1.87h0.06A3.62,3.62,0,0,1,54.82,4c2.51,0,3.59,1.85,3.59,4.33v6.78H54.58V9c0-1.1-.34-1.83-1.3-1.83s-1.42.88-1.42,2v5.88H48.1V9c0-1.1-.34-1.83-1.3-1.83s-1.42.88-1.42,2v5.88h-3.8V4.34h0Zm21.47,9.39h0v1.4H59.39V0h3.79V5.47h0.06A3.59,3.59,0,0,1,66.31,4c2.71,0,4.27,2.45,4.27,5.7,0,3.67-1.71,5.78-4.51,5.78a3.41,3.41,0,0,1-3-1.77m3.69-4.05c0-1.75-.64-2.87-1.79-2.87s-1.91,1.12-1.91,2.87,0.73,2.87,1.89,2.87,1.79-1.12,1.79-2.87m4.33,0A5.32,5.32,0,0,1,76.53,4a5.25,5.25,0,0,1,3.79,1.4,7,7,0,0,1,1.76,5.32H74.84c0.16,1.34.8,2,1.95,2a1.46,1.46,0,0,0,1.49-1h3.65c-0.64,2.47-2.55,3.71-5.26,3.71a5.34,5.34,0,0,1-5.6-5.72m3.77-1.15h3.45a1.78,1.78,0,0,0-1.53-2H76.6c-1,0-1.62.74-1.76,2" transform="translate(0 0)"/></svg>
