<svg xmlns="http://www.w3.org/2000/svg" viewBox="0 0 96 32"><defs><style>.a{fill:#0d82dc;}.b{fill:#0d83dd;isolation:isolate;}</style></defs><title>call_toll_free</title><path class="a" d="M56.52,19.79l-9,1c-3,.42-6,.71-9,1.23l-8.66,1.53c-1.4.26-2.79.47-4.13.77l-3.93.93L14.65,27C10.23,28.23,6.55,29.3,4,30.19s-4,1.42-4,1.42,1.47-.43,4.06-1.06c1.29-.33,2.86-.76,4.67-1.13L14.82,28,22,26.64c2.56-.52,5.26-1,8.07-1.43l8.65-1.41c2.94-.48,6-.73,9-1.1l9-1.15,8.72-.68,8.15-.71L74.75,20c2.15-.16,4.2-.15,6.11-.26,4.54-.16,8.32-.41,11-.52L96,19l-4.18-.12c-2.66,0-6.45-.16-11-.17-2.27,0-4.75-.12-7.35.06l-8.19.45-8.75.56"/><path class="b" d="M8.6,14.28c.17,1.65.78,4.82,2.95,4.6a1.81,1.81,0,0,0,.44-.1,3.12,3.12,0,0,0,1.62-2c.09-.37.18-.38.23-.39.43,0,.55.25.58.57.12,1.11-1,2.44-2.35,2.91a3.49,3.49,0,0,1-.85.21c-2.87.3-4-3.33-4.21-5.8-.23-2.22.18-5.05,2-6.3a3.15,3.15,0,0,1,1.43-.53,2.65,2.65,0,0,1,1.69.38,2.12,2.12,0,0,1,1,1.63.68.68,0,0,1-.6.84l-.2,0c-.27,0-.51-.53-.64-.75a.94.94,0,0,0-1-.53,1.66,1.66,0,0,0-1,.5C8.58,10.68,8.47,13.08,8.6,14.28ZM19.45,12.8a1.2,1.2,0,0,1,.22.54.67.67,0,0,1-.47.67c-.05,0-.15-.09-.3-.28s-.28-.28-.71-.23c-1.07.11-1.5,1.42-1.36,2.7.06.55.2,1.57,1.13,1.48s1.66-2.13,1.88-3.11.47-1.39.74-1.42.82-.09.89.56a23.3,23.3,0,0,0,.36,2.39,6.17,6.17,0,0,0,.59,1.62,1,1,0,0,1,.14.33.58.58,0,0,1-.52.56c-.68.07-1.41-1.19-1.68-3-.49,1.52-1.37,3.2-2.6,3.33-1.42.15-2.3-1.06-2.46-2.53-.2-1.9.4-4,2.55-4.2A1.59,1.59,0,0,1,19.45,12.8Zm7,5.19c0,.29-.31.47-.67.5a1.1,1.1,0,0,1-.94-.52c-.87-1.43-1.23-4.31-1.41-6-.12-1.18-.19-2.52-.21-3.24,0-1,0-2.19.76-2.27.46,0,1,.13,1,.43a.78.78,0,0,1,0,.22,41,41,0,0,0,.08,5.75c0,.3.06.61.11.91a9.85,9.85,0,0,0,1,3.73A.91.91,0,0,1,26.42,18Zm4-.57c0,.29-.4.51-.76.55-1.41.15-2-4.41-2.17-6.36a26.34,26.34,0,0,1-.17-2.81c0-1.19.14-2.46.82-2.53a.85.85,0,0,1,.9.45.78.78,0,0,1,0,.22,36.69,36.69,0,0,0,.08,5c0,.36.09.71.13,1.11l0,.18A12.37,12.37,0,0,0,30.2,17,.9.9,0,0,1,30.43,17.42ZM38.9,4A17.19,17.19,0,0,1,43,3c.16,0,.51.05.57.57s-.1,1.1-.51,1.14c-.16,0-.45,0-.68,0A30.29,30.29,0,0,0,36,6.51,16.41,16.41,0,0,0,33.35,7.7a2.73,2.73,0,0,1-.42.15c-.34,0-.46-.26-.5-.49,0-.39.34-.6.61-.75A28,28,0,0,1,38.9,4Zm.2,13.14c-.63.07-1-1.08-1.08-1.44a38.75,38.75,0,0,1-1.24-6.33c-.09-.89-.12-2.05.79-2.15.54-.06,1,0,1,.34a.52.52,0,0,1,0,.2,26.19,26.19,0,0,0,.07,3.9c.07.7.19,1.46.31,2.23.13.93.49,2.45.52,2.72C39.57,17.09,39.41,17.11,39.11,17.14Zm3.28-3.57c-.21-2,.09-4.1,2.51-4.36C46.62,9,47.44,10.51,47.6,12c.19,1.81-.46,4.07-2.46,4.28A2.69,2.69,0,0,1,42.39,13.57Zm4-1.6c-.08-.73-.54-1.5-1.27-1.42-1.47.15-1.45,1.69-1.34,2.73s.54,1.65,1.27,1.57C46.33,14.72,46.56,13.1,46.44,12Zm5.51,3.33c0,.29-.31.47-.67.51a1.1,1.1,0,0,1-.94-.52c-.87-1.43-1.23-4.31-1.41-6-.12-1.18-.19-2.52-.21-3.24,0-1,0-2.19.76-2.27.47,0,1,.13,1,.43a.78.78,0,0,1,0,.22,41,41,0,0,0,.08,5.75c0,.3.06.61.11.91a9.82,9.82,0,0,0,1,3.73A.92.92,0,0,1,51.95,15.3Zm4-.57c0,.29-.4.51-.76.55-1.42.15-2-4.41-2.17-6.36a26.88,26.88,0,0,1-.17-2.81c0-1.19.14-2.46.82-2.53a.85.85,0,0,1,.9.45.82.82,0,0,1,0,.22,36.53,36.53,0,0,0,.08,5c0,.36.09.71.13,1.11l0,.18a12.39,12.39,0,0,0,.92,3.71A.91.91,0,0,1,56,14.74ZM68.82,1.25a.66.66,0,0,1,.57.57c0,.43-.07,1.08-.3,1.1a8.13,8.13,0,0,0-3.23,0,20.65,20.65,0,0,0-5,1.29,1.71,1.71,0,0,1-.68.25c-.2,0-.34-.27-.37-.58A.48.48,0,0,1,60,3.41c.69-.49,2.38-1.77,6.92-2.25A5.38,5.38,0,0,1,68.82,1.25ZM64,9.74c.32,3.06.52,3.78.6,4.53,0,.11.06.25.08.37s0,.37-.39.4a.79.79,0,0,1-.2,0c-.2,0-.35-.23-.49-.55a36.74,36.74,0,0,1-1-4.53l-.84.32a.79.79,0,0,1-.17.05c-.12,0-.19-.07-.21-.29,0-.69.3-.81.78-1a1.57,1.57,0,0,0,.26-.12c-.1-.59-.18-1.16-.23-1.66-.09-.86-.28-2.7.74-2.81.48-.05.86.07.93.37a.42.42,0,0,1,0,.16c0,1,0,2.21.06,3.33a14.93,14.93,0,0,1,3.39-.81c.14,0,.43,0,.48.4s-.1.93-.44,1c-.14,0-.4,0-.58,0a16.12,16.12,0,0,0-2.74.6Zm7.76.27a5.68,5.68,0,0,0,0,1.49l.05.5c.12,1.13-.17,1.45-.84,1.52-.45,0-.51-.35-.55-.76A16.61,16.61,0,0,0,69.75,9a11.74,11.74,0,0,1-.3-1.14.77.77,0,0,1,0-.28.72.72,0,0,1,.58-.48c.64-.07.84.24,1.17,1.47a9.21,9.21,0,0,1,.57-1.13A2.66,2.66,0,0,1,73.72,6a.93.93,0,0,1,1.07.7c0,.39-.11.9-.48.94l-.17-.11a.78.78,0,0,0-.55-.09C72.46,7.61,72,9,71.79,10Zm8.87.71c.16-.23.19-.42.42-.44s.39.27.42.52c.1.91-1.43,2-2.81,2.18-2.15.23-3.26-1.52-3.44-3.3C75,7.66,76,5.82,78.08,5.6a1.61,1.61,0,0,1,1.84,1.35,3.09,3.09,0,0,1-.28,1.6,6.15,6.15,0,0,1-2.43,2.37,1.76,1.76,0,0,0,1.74,1A2.35,2.35,0,0,0,80.66,10.73ZM78,7c-1.22.13-1.29,1.71-1.2,2.53,0,.21.06.43.1.6a2.85,2.85,0,0,0,1.79-2.63A.6.6,0,0,0,78,7Zm9.49,2.44c.29,0,.48.22.51.53.13,1.2-1.69,2-2.78,2.16-2,.21-3.15-1.59-3.33-3.29-.2-1.93.7-3.7,2.63-3.9A1.43,1.43,0,0,1,86.21,6.2c.15,1.45-1,2.88-2.29,4a1.56,1.56,0,0,0,1.59.83C86.78,10.9,87.5,9.37,87.49,9.39Zm-3-3.15c-1.16.12-1.13,1.68-1,2.46a4.34,4.34,0,0,0,.11.69c1.1-1.09,1.51-2,1.42-2.81A.41.41,0,0,0,84.51,6.25Z"/></svg>