<svg xmlns="http://www.w3.org/2000/svg" viewBox="0 0 24.66 24.66"><defs><style>.a{fill:#bdbcbc;}</style></defs><title>cnet</title><path class="a" d="M17.43,12.07H15.89V10.74h0a0.78,0.78,0,0,1,1.54,0v1.33Zm7.22,0.26A12.33,12.33,0,1,1,12.32,0h0A12.33,12.33,0,0,1,24.65,12.33ZM6.88,14.79V13.94H5.69v0.93a0.78,0.78,0,0,1-1.54,0v-4a0.78,0.78,0,0,1,1.54,0v0.76H6.88v-0.7C7,8.59,2.94,8.59,3,10.87v4C2.94,17.07,6.95,17.13,6.88,14.79ZM8.5,5.69H7.67v14H8.5v-14Zm5.81,9.77H13.59V10.69a1.55,1.55,0,0,0-.77-1.45,1.4,1.4,0,0,0-1.25,0,2.22,2.22,0,0,0-.74.6h0V9.24H9.15v0.87H9.8v5.36H9.25v0.88H11V10.63c0.05-.81,1.42-0.82,1.42,0v5.71h1.93V15.47h0Zm4.29-.68V13.94H17.44v0.93a0.78,0.78,0,0,1-1.54,0V13h2.5a0.22,0.22,0,0,0,.22-0.22V10.81c0.07-2.34-3.94-2.34-3.91-.06v4c0,2.32,4,2.38,3.92,0h0Zm3.51,1.56V15.47H21.4a0.56,0.56,0,0,1-.62-0.6V10.12h1.14V9.25H20.78V7.4H19.59v7.37a1.55,1.55,0,0,0,.77,1.45h0a1.79,1.79,0,0,0,.64.13h1.11ZM11,10.63h0Zm9.37,5.58h0Zm0,0h0Zm-2.92-2.27h0Z" transform="translate(0.01)"/></svg>
