<svg xmlns="http://www.w3.org/2000/svg" viewBox="0 0 33.96 16.18"><defs><style>.a{fill:#d3d3d3;}</style></defs><title>cnn</title><path class="a" d="M34,0.06V13.22c0,3.38-4,3.91-5.59,1.21L24.93,8.75v4.47c0,3.38-3.94,3.91-5.59,1.21-1-1.58-3.41-5.68-3.41-5.68v4a2.86,2.86,0,0,1-3.1,3.19H8.48C-2.75,15.94-2.84.06,8.3,0.06h2.48v2H8A5.81,5.81,0,0,0,3.48,3.94,6.08,6.08,0,0,0,2,8,5.78,5.78,0,0,0,7.61,14h5.22a1,1,0,0,0,1.06-1.06V3.16a0.49,0.49,0,0,1,.29-0.51,0.45,0.45,0,0,1,.49.19C16,5,21.25,13.42,21.32,13.52a0.91,0.91,0,0,0,1,.39,1,1,0,0,0,.6-1V3.16a0.49,0.49,0,0,1,.29-0.51,0.45,0.45,0,0,1,.49.19C25,5,30.25,13.42,30.32,13.52a1,1,0,0,0,.77.43,0.83,0.83,0,0,0,.25,0A1,1,0,0,0,32,13V0.06h2ZM2.48,8c0,3.72,2.93,5.41,5.66,5.41h4.69a0.55,0.55,0,0,0,.55-0.55h0V3.16a1,1,0,0,1,.64-1,0.94,0.94,0,0,1,1.06.38h0c1.33,2.2,6.6,10.61,6.65,10.7a0.4,0.4,0,0,0,.43.19,0.47,0.47,0,0,0,.25-0.49V3.16a1,1,0,0,1,.64-1,0.94,0.94,0,0,1,1.06.38h0c1.37,2.2,6.57,10.61,6.62,10.7a0.42,0.42,0,0,0,.45.19,0.47,0.47,0,0,0,.3-0.49V0.06h-2V7.57S28.3,5.57,26.25,2s-5.8-2-5.8.93V7.57s-1.18-2-3.23-5.55-5.8-2-5.8.93v7.94a0.57,0.57,0,0,1-.53.56H8.36C3,11.45,3.49,4.56,8,4.56h2.73v-2H8A5.29,5.29,0,0,0,2.48,7.65Q2.47,7.84,2.48,8Z" transform="translate(0 0.03)"/></svg>
