<svg xmlns="http://www.w3.org/2000/svg" width="19px" height="14px" viewBox="0 0 19 14"><defs><style>.a{fill:#0d83dd;}</style></defs><title>envelope-alt</title><path class="a" d="M3.11,13a2.06,2.06,0,0,1-1.51-.63A2.08,2.08,0,0,1,1,10.88V2.18A2.08,2.08,0,0,1,1.6.65,2.06,2.06,0,0,1,3.11,0h13a2.08,2.08,0,0,1,1.53.63,2.08,2.08,0,0,1,.63,1.53v8.7A2.16,2.16,0,0,1,16.08,13Zm-.4-1.27,0,0h0l0,0a.79.79,0,0,0,.24.11,1,1,0,0,0,.25,0h13a.89.89,0,0,0,.25,0l.23-.09,0,0,0,0-3.9-4.17L11.3,9a2.42,2.42,0,0,1-.8.55,2.47,2.47,0,0,1-1,.2,2.42,2.42,0,0,1-1-.21,2.6,2.6,0,0,1-.82-.58L6.59,7.77ZM13.34,6.86l3.81,4.06v-8ZM2,10.88,5.85,7,2,2.92ZM3.11,1.09a1,1,0,0,0-.52.14,1.15,1.15,0,0,0-.38.35l.1.06.08.06L8.47,8.19a1.33,1.33,0,0,0,.46.33,1.4,1.4,0,0,0,.56.11h0a1.34,1.34,0,0,0,.55-.11,1.49,1.49,0,0,0,.45-.31l6.29-6.49.08-.06L17,1.6a1.25,1.25,0,0,0-.4-.37,1,1,0,0,0-.52-.14Z"/></svg>
