<svg xmlns="http://www.w3.org/2000/svg" viewBox="0 0 89.17 13.27"><defs><style>.a{fill:#bdbcbc;}</style></defs><title>fast-company</title><path class="a" d="M42.41,3.59c0,1.79-.21,7.32-0.21,7.32,0,1.08.36,1.55,1.38,1.55v0.48h-4V12.49a1.37,1.37,0,0,0,1.55-1.58l0.36-9.09a1.35,1.35,0,0,0-1.38-1V0.42h3l3.3,8.49L49.7,0.42h2.71V0.84A1,1,0,0,0,51.21,2l0.36,8.79c0,1.31.24,1.67,1.31,1.67V13h-4.6V12.49c0.9,0,1.32-.3,1.26-1.67,0,0-.18-6.16-0.24-7.23l-2.21,6.1a22.9,22.9,0,0,0-.84,2.63l-0.72.06c-0.18-.66-0.66-1.85-0.66-1.85S43,5.32,42.41,3.59h0ZM38.61,13a3,3,0,0,0-.72,0c-0.48,0-1.32.24-2.33,0.24-3.89,0-6.76-2.33-6.76-6.64,0-3.66,2.7-6.45,6.82-6.45a8.19,8.19,0,0,1,2.93.54c0.18-.18.24-0.3,0.42-0.48h0.36C39.27,0.84,39,3,39,3H38.67c-0.26-1.26-.89-2.08-3-2.08-2.51,0-4.78,2-4.78,5.62,0,4.12,2.33,5.92,4.9,5.92a3.68,3.68,0,0,0,3.35-2.15l0.42,0.18-1,2.57h0ZM27.32,2.75H26.9c-0.06-1.14-.42-1.49-1.32-1.49H23.85v9.39c0,1.55.3,1.85,1.32,1.85V13H20.68V12.49c1,0,1.32-.3,1.32-1.91V1.25H20.26c-1.14,0-1.32.3-1.61,1.49H18.23L18.53,0l0.3,0.06c0.12,0.3.36,0.3,1.08,0.3h5.8c1.08,0,1.32,0,1.55-.36h0.35l-0.3,2.69h0V2.75ZM14.64,13.27a5.77,5.77,0,0,1-2-.3,3.42,3.42,0,0,1-1-.42,3.26,3.26,0,0,0-.42.54L10.86,13l0.3-2.81,0.42,0.06a2.69,2.69,0,0,0,3,2.27A2.42,2.42,0,0,0,17,10.1S17,10,17,10h0c0-1.08-.42-1.61-1.85-2.69a12.4,12.4,0,0,1-1.25-.84,3.82,3.82,0,0,1-2.16-3.34c0-1.79,1.49-3,3.47-3A4.53,4.53,0,0,1,17.3.61l0.42-.48,0.28,0L17.7,2.74l-0.42-.06A1.63,1.63,0,0,0,15.36.91a1.74,1.74,0,0,0-2,1.73A2.91,2.91,0,0,0,15,4.91c0.48,0.3.84,0.54,1.2,0.78,2.09,1.49,2.57,2.45,2.57,3.89,0,2.09-1.61,3.65-4.18,3.65h0ZM7.83,2.75H7.35a1.27,1.27,0,0,0-1.44-1.5H3.22V6H5c0.86,0,1-.5,1.16-1.27H6.57V8.07H6.15C6,7.17,5.85,6.81,4.9,6.81H3.22v4c0,1.49.36,1.67,1.32,1.67V13H0V12.49c1.13,0,1.31-.3,1.31-1.67V2A1.07,1.07,0,0,0,0,.84V0.42H6.21C7.29,0.42,7.52.36,7.7,0H8.12L7.82,2.75h0Zm64.5,0.72v7.17c0,1.55.36,1.85,1.32,1.85V13H66.59V12.49a0.86,0.86,0,0,0,1-.54,4.4,4.4,0,0,0-.18-1L66.89,9.14h-4a19.57,19.57,0,0,0-.78,2.77,0.76,0.76,0,0,0,.89.6h0V13H59.77V12.5c0.6,0,1.08-.06,1.49-1.31l3-9.74a0.89,0.89,0,0,0-.83-0.6V0.42h2.69l3.29,10.22a2.64,2.64,0,0,0,1.08,1.85c0.72-.24.9-0.48,0.9-1.85V2c-0.54-.72-0.6-1.2-1.61-1.2V0.42h3l5,8.55V2.45c0-1.31-.3-1.61-1.32-1.61V0.42h6.75V0.84a0.65,0.65,0,0,0-.78.6,3.27,3.27,0,0,0,.24,1l1.91,4.12,1.83-4a2.18,2.18,0,0,0,.36-1.13C86.77,1,86.53.84,86,.84V0.42h3.17V0.84c-0.78,0-1.25.72-1.61,1.55l-2.45,5v3.29c0,1.43.36,1.79,1.31,1.79v0.48H81.89V12.49c1,0,1.32-.36,1.32-1.79V7.91L80.57,2.33a2.82,2.82,0,0,0-1-1.49c-0.6.24-.78,0.66-0.78,1.61v9.21s0.06,0.72.12,1.55l-0.78.06-5.85-9.8h0Zm-7.47-.56-1.68,5.4h3.47l-1.79-5.4h0Zm-7.45,5.4h-0.9v2.6c0,1.32.36,1.61,1.37,1.61V13h-4.6V12.49c1,0,1.32-.36,1.32-1.67V2.39c0-1.31-.36-1.55-1.32-1.55V0.42h3.47c3.35,0,5.32,1,5.32,3.77s-2.35,4.12-4.66,4.12h0Zm-0.6-7.05h-0.3V7.41h0.54c2,0,3-.9,3-3.17s-0.9-3-3.23-3h0v0ZM36.58,10.58a3.7,3.7,0,0,1-3.82-3.94A3.8,3.8,0,0,1,36.41,2.7h0.17a3.76,3.76,0,0,1,3.77,3.75h0V6.64a3.83,3.83,0,0,1-3.72,3.94H36.58Zm0-7.17c-1.55,0-2.09,1.49-2.09,3.23S35,9.91,36.58,9.91s2-1.62,2-3.29-0.6-3.17-2-3.17h0v0Zm-26.3,6.5V9.44c0.6,0,.72-0.18.72-0.36a1.74,1.74,0,0,0-.12-0.6S10.76,8,10.64,7.64H8.3l-0.24.78a1.74,1.74,0,0,0-.12.6,0.51,0.51,0,0,0,.58.42h0V9.91H6.21V9.44a1,1,0,0,0,1.08-.83L9.08,3.23a0.55,0.55,0,0,0-.6-0.42V2.39h1.93c1.54,4.52,2,5.74,2,5.74,0.3,1,.6,1.31,1.08,1.31V9.91H10.28ZM9.41,4.06L8.51,7h1.9l-1-2.93h0Z"/></svg>
