<svg xmlns="http://www.w3.org/2000/svg" xmlns:xlink="http://www.w3.org/1999/xlink" viewBox="0 0 34 34"><defs><style>.a{fill:#fff;}.b{fill:#db4e3f;}.c{mask:url(#a);}.d{fill:#f9f8f8;}</style><mask id="a" x="2.73" y="6.29" width="21.16" height="21.41" maskUnits="userSpaceOnUse"><path class="a" d="M7.19,17a6.24,6.24,0,0,0,6.25,6.24,5.76,5.76,0,0,0,6-6.1,5.71,5.71,0,0,0-.1-1h-5.9v2.14H17a3.37,3.37,0,0,1-3.54,2.7,3.94,3.94,0,0,1,0-7.89,3.51,3.51,0,0,1,2.49,1l1.7-1.63a6,6,0,0,0-4.18-1.63A6.24,6.24,0,0,0,7.19,17Z"/></mask></defs><title>icon-gp</title><path class="b" d="M34,17A17,17,0,1,1,17,0,17,17,0,0,1,34,17"/><g class="c"><polygon class="d" points="2.73 27.71 23.89 27.71 23.89 6.29 2.73 6.29 2.73 27.71"/></g><polyline class="d" points="26.81 16.11 25.03 16.11 25.03 14.32 23.25 14.32 23.25 16.11 21.46 16.11 21.46 17.89 23.25 17.89 23.25 19.68 25.03 19.68 25.03 17.89 26.81 17.89"/></svg>