<svg xmlns="http://www.w3.org/2000/svg" viewBox="0 0 34 34"><defs><style>.a{fill:#55acee;}.b{fill:#fff;}</style></defs><title>icon-twitter</title><path class="a" d="M34,17A17,17,0,1,1,17,0,17,17,0,0,1,34,17"/><path class="b" d="M25.85,11.51a7.27,7.27,0,0,1-2.09.57,3.64,3.64,0,0,0,1.6-2,7.26,7.26,0,0,1-2.31.88,3.64,3.64,0,0,0-6.19,3.31,10.32,10.32,0,0,1-7.49-3.8,3.64,3.64,0,0,0,1.12,4.85,3.61,3.61,0,0,1-1.64-.45v0a3.63,3.63,0,0,0,2.91,3.56,3.65,3.65,0,0,1-1.64.06,3.64,3.64,0,0,0,3.39,2.52,7.33,7.33,0,0,1-5.38,1.5,10.33,10.33,0,0,0,15.9-8.7c0-.16,0-.31,0-.47a7.39,7.39,0,0,0,1.81-1.88"/></svg>