<svg xmlns="http://www.w3.org/2000/svg" viewBox="0 0 34 34"><defs><style>.a{fill:#be000f;}.b{fill:#fff;}</style></defs><title>icon-yt</title><path class="a" d="M34,17A17,17,0,1,1,17,0,17,17,0,0,1,34,17"/><path class="b" d="M15.14,19.33V14.28L20,16.81ZM25.82,13.4a3.89,3.89,0,0,0-.72-1.79,2.58,2.58,0,0,0-1.8-.76c-2.52-.18-6.3-.18-6.3-.18h0s-3.78,0-6.3.18a2.57,2.57,0,0,0-1.8.76,3.89,3.89,0,0,0-.72,1.79A27.24,27.24,0,0,0,8,16.31v1.36a27.21,27.21,0,0,0,.18,2.91,3.89,3.89,0,0,0,.72,1.79,3,3,0,0,0,2,.77c1.44.14,6.12.18,6.12.18s3.78,0,6.3-.19a2.57,2.57,0,0,0,1.8-.76,3.89,3.89,0,0,0,.72-1.79A27.36,27.36,0,0,0,26,17.68V16.31a27.39,27.39,0,0,0-.18-2.91Z"/></svg>