<svg xmlns="http://www.w3.org/2000/svg" viewBox="0 0 34 34"><defs><style>.a{fill:#DA2B73;}.b{fill:#fff;}</style></defs><title>icon-ig</title><path class="a" d="M34,17A17,17,0,1,1,17,0,17,17,0,0,1,34,17"/><path class="b" d="M17,8c-2.44,0-2.75,0-3.71.05a6.62,6.62,0,0,0-2.18.42A4.61,4.61,0,0,0,8.47,11.1a6.62,6.62,0,0,0-.42,2.18C8,14.25,8,14.56,8,17s0,2.75.05,3.71a6.62,6.62,0,0,0,.42,2.18,4.61,4.61,0,0,0,2.63,2.63,6.62,6.62,0,0,0,2.18.42c1,0,1.27.05,3.71.05s2.75,0,3.71-.05a6.62,6.62,0,0,0,2.18-.42,4.61,4.61,0,0,0,2.63-2.63,6.62,6.62,0,0,0,.42-2.18c0-1,.05-1.27.05-3.71s0-2.75-.05-3.71a6.62,6.62,0,0,0-.42-2.18A4.61,4.61,0,0,0,22.9,8.47a6.62,6.62,0,0,0-2.18-.42C19.75,8,19.44,8,17,8m0,1.62c2.4,0,2.69,0,3.64.05a5,5,0,0,1,1.67.31A3,3,0,0,1,24,11.69a5,5,0,0,1,.31,1.67c0,.95.05,1.23.05,3.64s0,2.69-.05,3.64A5,5,0,0,1,24,22.31,3,3,0,0,1,22.31,24a5,5,0,0,1-1.67.31c-.95,0-1.23.05-3.64.05s-2.69,0-3.64-.05A5,5,0,0,1,11.69,24,3,3,0,0,1,10,22.31a5,5,0,0,1-.31-1.67c0-.95-.05-1.23-.05-3.64s0-2.69.05-3.64A5,5,0,0,1,10,11.69,3,3,0,0,1,11.69,10a5,5,0,0,1,1.67-.31c.95,0,1.23-.05,3.64-.05"/><path class="b" d="M17,20a3,3,0,1,1,3-3,3,3,0,0,1-3,3m0-7.62A4.62,4.62,0,1,0,21.62,17,4.62,4.62,0,0,0,17,12.38"/><path class="b" d="M22.88,12.2a1.08,1.08,0,1,1-1.08-1.08,1.08,1.08,0,0,1,1.08,1.08"/></svg>
