<svg xmlns="http://www.w3.org/2000/svg" viewBox="0 0 80 13.67"><defs><style>.a{fill:#b2b2b2;}</style></defs><title>mashable</title><path class="a" d="M11.79,13.45V4.55L8.4,13.45H6.87L3.5,4.55v8.9H0V0H4.82L7.64,7.42,10.44,0h4.82V13.45H11.79Zm10.37,0v-1a4,4,0,0,1-3,1.21,3.23,3.23,0,0,1-3.35-3.11h0v-0.1a3.07,3.07,0,0,1,3-3.16h0.39a3.9,3.9,0,0,1,3,1.15v-1c0-.85-0.73-1.43-2-1.43a4.26,4.26,0,0,0-2.72,1L16.31,5a6.87,6.87,0,0,1,4.42-1.51c2.34,0,4.54.87,4.54,3.89v6.09H22.16v0Zm0-2.5V10.08a2.15,2.15,0,0,0-1.73-.69,1.32,1.32,0,0,0-1.54,1.06h0v0.07a1.32,1.32,0,0,0,1.47,1.15h0.07A2.15,2.15,0,0,0,22.16,11m3.35,1.23L26.79,10a6.09,6.09,0,0,0,3.43,1.31c0.93,0,1.31-.26,1.31-0.69,0-1.21-5.67,0-5.67-3.91C25.86,5,27.35,3.46,30,3.46a6.81,6.81,0,0,1,4.07,1.3L32.91,7A4.35,4.35,0,0,0,30,5.89c-0.73,0-1.21.28-1.21,0.66,0,1.07,5.65,0,5.65,4,0,1.81-1.64,3.11-4.43,3.11a7.18,7.18,0,0,1-4.56-1.48m16,1.27V7.78a1.39,1.39,0,0,0-1.61-1.57A2.39,2.39,0,0,0,38,7.16v6.29H34.88V0H38V4.9a4.4,4.4,0,0,1,3.37-1.43c2.22,0,3.23,1.25,3.23,3v6.94H41.5Zm9.9,0v-1a4,4,0,0,1-3,1.21A3.23,3.23,0,0,1,45,10.55h0v-0.1a3.07,3.07,0,0,1,3-3.16H48.4a3.9,3.9,0,0,1,3,1.15v-1c0-.85-0.73-1.43-2-1.43a4.26,4.26,0,0,0-2.72,1L45.5,5a6.87,6.87,0,0,1,4.42-1.51c2.34,0,4.54.87,4.54,3.89v6.09H51.4Zm0-2.5V10.08a2.15,2.15,0,0,0-1.73-.69,1.32,1.32,0,0,0-1.54,1.06h0v0.07a1.32,1.32,0,0,0,1.47,1.15h0.07A2.15,2.15,0,0,0,51.35,11m4.18,2.5V0h3.11V4.86a3.59,3.59,0,0,1,2.89-1.39c2.44,0,4.29,1.91,4.29,5.1s-1.9,5.09-4.3,5.09a3.73,3.73,0,0,1-2.89-1.37v1.13h-3.1v0Zm5-2.5a2.16,2.16,0,0,0,2.16-2.38,2.16,2.16,0,0,0-2-2.35H60.5a2.49,2.49,0,0,0-1.86.89v3A2.47,2.47,0,0,0,60.5,11M66.3,0h3.11V13.45H66.3V0Zm3.55,8.57a5,5,0,0,1,4.9-5.1H75c2.89,0,5,2.12,5,5.43V9.6H73.06a2.29,2.29,0,0,0,2.44,1.59,4.05,4.05,0,0,0,2.38-.83l1.35,2a6.35,6.35,0,0,1-4.08,1.3A5,5,0,0,1,69.86,9V8.57M75,5.94a1.81,1.81,0,0,0-2,1.51h4a1.77,1.77,0,0,0-2-1.51h0"/></svg>
