<svg xmlns="http://www.w3.org/2000/svg" viewBox="0 0 114.06 14.81"><defs><style>.a{fill:#cecdcd;}.b{fill:#b2b2b2;}</style></defs><title>techcrunch</title><path class="a" d="M7.8,4v10.6H3.92V4H0V0.6H11.72V4H7.8Zm13,6.38H14.64A1.66,1.66,0,0,0,16.28,12h0.14a5.48,5.48,0,0,0,2.72-.74l1.38,2.3a8.15,8.15,0,0,1-4.28,1.2c-3.16,0-4.9-2.24-4.9-5.46,0-3.62,2-5.48,4.8-5.48s4.68,1.9,4.68,5.8a6.73,6.73,0,0,1,0,.74ZM16,6.54c-0.82,0-1.28.56-1.4,1.6h3C17.44,7.08,17.08,6.54,16,6.54Zm11.48,8.28c-3.08,0-4.92-2-4.92-5.5,0-3.22,1.64-5.44,5-5.44a4.4,4.4,0,0,1,4,2.4L29.08,8.16c-0.44-.92-0.8-1.36-1.58-1.36s-1.38.92-1.38,2.58,0.52,2.52,1.52,2.52c0.68,0,1.16-.38,1.82-1.36l2.28,1.78C30.48,14.12,29.34,14.82,27.48,14.82Zm12.28-.22v-6c0-1.36-.46-1.72-1.2-1.72s-1.22.36-1.22,1.68v6h-3.6V1.46L37.34,0v4.8A4,4,0,0,1,40,3.88c2.3,0,3.4,1.54,3.4,4.3V14.6H39.76Z" transform="translate(0 -0.02)"/><path class="b" d="M52,14.82c-4.16,0-6.36-3.08-6.36-7.22,0-4.5,2.64-7.22,6.4-7.22,3.44,0,4.8,1.48,5.76,4.12L54.26,5.88c-0.5-1.3-1-2.12-2.26-2.12-1.62,0-2.36,1.62-2.36,3.84s0.68,3.84,2.36,3.84c1.22,0,1.74-.66,2.5-2l3.28,1.74A6,6,0,0,1,52,14.82ZM66.64,8A2.27,2.27,0,0,0,65,7.18c-0.88,0-1.42.42-1.42,1.7V14.6H60V4.1h3.6V4.86a3.22,3.22,0,0,1,3.94-.54Zm8.6,6.54v-0.7a4,4,0,0,1-2.62.92c-2.3,0-3.4-1.54-3.4-4.3V4.1h3.62v6c0,1.36.46,1.72,1.2,1.72s1.2-.36,1.2-1.68v-6h3.62V14.6H75.24v0Zm12.24,0v-6c0-1.36-.46-1.72-1.2-1.72s-1.22.36-1.22,1.68v6h-3.6V4.1h3.6V4.8a4,4,0,0,1,2.64-.92c2.3,0,3.4,1.54,3.4,4.3V14.6H87.48v0Zm10.64,0.26c-3.08,0-4.92-2-4.92-5.5,0-3.22,1.64-5.44,5-5.44a4.4,4.4,0,0,1,4,2.4L99.72,8.16c-0.5-.92-0.84-1.36-1.62-1.36s-1.38.92-1.38,2.58,0.5,2.52,1.48,2.52c0.68,0,1.16-.38,1.82-1.36l2.28,1.78C101.12,14.12,100,14.82,98.12,14.82Zm12.28-.22v-6c0-1.36-.46-1.72-1.2-1.72s-1.2.36-1.2,1.68v6h-3.6V1.46L108,0v4.8a4,4,0,0,1,2.66-.92c2.3,0,3.4,1.54,3.4,4.3v6.42H110.4v0Z" transform="translate(0 -0.02)"/></svg>
