<svg xmlns="http://www.w3.org/2000/svg" width="17px" height="17px" viewBox="0 0 17 17"><defs><style>.a{fill:#0d83dd;}</style></defs><title>telephone-alt</title><path class="a" d="M11.53,16.42h0a6.17,6.17,0,0,1-4.43-1.85L2.5,10A6.37,6.37,0,0,1,1.14,8,6.11,6.11,0,0,1,.65,5.54,6.11,6.11,0,0,1,1.14,3.1a6.37,6.37,0,0,1,1.35-2A2,2,0,0,1,3.1.68,1.85,1.85,0,0,1,3.85.53H4a1.79,1.79,0,0,1,.78.21,2,2,0,0,1,.61.49L7.93,4.36a2.19,2.19,0,0,1,.32.56,1.87,1.87,0,0,1-.18,1.7,1.93,1.93,0,0,1-.78.69l-.51.25a.87.87,0,0,0-.34.31.83.83,0,0,0-.13.47.85.85,0,0,0,.06.33.83.83,0,0,0,.18.27L8,10.37a.86.86,0,0,0,.26.18.81.81,0,0,0,.33.07h.14a.81.81,0,0,0,.37-.16.86.86,0,0,0,.25-.3l.25-.49A2,2,0,0,1,10.12,9a1.76,1.76,0,0,1,.78-.37l.2,0,.22,0a1.83,1.83,0,0,1,.67.12,1.93,1.93,0,0,1,.56.33l3.3,2.72a1.9,1.9,0,0,1,.5.65,1.93,1.93,0,0,1,.18.84,1.87,1.87,0,0,1-.15.74,1.93,1.93,0,0,1-.41.62,6.17,6.17,0,0,1-4.43,1.85h0ZM3.85,1.6h0a.75.75,0,0,0-.33.07,1,1,0,0,0-.27.19A5.18,5.18,0,0,0,2.15,3.52a5.1,5.1,0,0,0-.4,2,5.1,5.1,0,0,0,.4,2A5.18,5.18,0,0,0,3.25,9.21l4.61,4.61a5.3,5.3,0,0,0,1.65,1.12,5.15,5.15,0,0,0,4,0,5.3,5.3,0,0,0,1.65-1.12,1,1,0,0,0,.19-.27.75.75,0,0,0,.07-.33.8.8,0,0,0-.09-.38,1,1,0,0,0-.23-.29L11.87,9.83a1.21,1.21,0,0,0-.25-.14.77.77,0,0,0-.29-.05h-.1l-.1,0L11,9.71l-.16.1a2.94,2.94,0,0,0-.38.66,5.15,5.15,0,0,0-.17,2.14h0a.51.51,0,0,1-.15.38.56.56,0,0,1-.36.17h0A.52.52,0,0,1,9.34,13a.54.54,0,0,1-.18-.36q0-.26,0-.53t0-.53l-.28.06-.3,0a1.92,1.92,0,0,1-1.37-.56L5.79,9.69a2.05,2.05,0,0,1-.42-.62,1.78,1.78,0,0,1-.16-.74q0-.09,0-.18t0-.18l0-.1,0-.1-.22,0H4.84l-.69,0a.56.56,0,0,1-.36-.17.51.51,0,0,1-.15-.38.51.51,0,0,1,.16-.37.53.53,0,0,1,.39-.16H5a4.66,4.66,0,0,0,.82-.07,4.22,4.22,0,0,0,.76-.21l0,0,.19-.11L7,6.17l0,0,.05,0,0,0a.73.73,0,0,0,.13-.24.86.86,0,0,0,0-.27A.86.86,0,0,0,7.09,5L4.52,1.92a.92.92,0,0,0-.28-.22,1,1,0,0,0-.33-.1Z"/></svg>
