<svg xmlns="http://www.w3.org/2000/svg" viewBox="0 0 151.62 21.32"><defs><style>.a{fill:#cccccc;}</style></defs><title>the-new-york-times</title><path class="a" d="M9.47,0.11A2.17,2.17,0,0,1,11,.82a2,2,0,0,1,.42,2,1.91,1.91,0,0,1-1,1.41A3,3,0,0,1,9,4.65V7.31L10.3,8.44,9,9.44v3.82a7.06,7.06,0,0,0,2.13-2.55l0.14-.28a5.94,5.94,0,0,1-.54,2.68,4.31,4.31,0,0,1-2,2.26,6,6,0,0,1-4,.71A6.2,6.2,0,0,1,.94,13.4a6.07,6.07,0,0,1-1-3.53A6.54,6.54,0,0,1,4,4.36a1.53,1.53,0,0,1,.9-0.15,1.29,1.29,0,0,0-.71.42,4.25,4.25,0,0,0-1.55,2L6.92,4.77v5.94l-3.39,1.7a3.81,3.81,0,0,0,2.54,1.41,3.63,3.63,0,0,0,2.83-.57V9.44l-1.41-1L8.9,7.31V4.63a21.82,21.82,0,0,1-2.14-.57C5.93,3.92,3.39,3.22,3.11,3.22a1.33,1.33,0,0,0-1.27.14,1.1,1.1,0,0,0-.28,1.13,0.73,0.73,0,0,0,.28.57,1.09,1.09,0,0,1-.43-0.15A1.92,1.92,0,0,1,.56,3.36,2.57,2.57,0,0,1,1.69,1.1,2.7,2.7,0,0,1,3.81.53,37.51,37.51,0,0,1,8.34,1.8a1.62,1.62,0,0,0,1.42-.09A0.63,0.63,0,0,0,10,.87h0A2.27,2.27,0,0,0,8.48.11a1.21,1.21,0,0,1,1,0h0ZM4.38,11.84V6l-1.7.85a6.66,6.66,0,0,0-.42,2.4,7.24,7.24,0,0,0,1.13,3l1-.42h0v0ZM25.86,5.76s-1.41.85-2.26,1.41l-2,1v5.54l-0.84.53,0.14,0.14,0.71-.57L24,15.93l4.26-3.22-0.14-.14-2.27,1.81-2-1.84V12l3.82-2.83L25.86,5.76h0Zm0,4.52-2,1.41V7l2,3.25h0ZM15,18.06a5.33,5.33,0,0,0,2.68-.42,3.68,3.68,0,0,0,1.84-3.39l0.14-2V7.88l0.71-.57V7.18l-0.85.53-1.84-2-2.4,2V0.81l-3,2.26a0.83,0.83,0,0,1,.57.85v9.79l-1.27.85,0.2,0.15,0.57-.42L14,15.84l2.65-2.13-0.14-.14L16,14.14l-0.71-.71V8L16,7.31l1.27,1.4v4.66c0,1.27,0,2.83-.71,3.53A2.75,2.75,0,0,1,15,18h0v0Zm18.52-.57c-1.13-.14-1.55-0.71-1.55-1.27a1.19,1.19,0,0,1,1-1,1.79,1.79,0,0,1,1.84.85l2.54-2.83H37.17L36.46,14a4.16,4.16,0,0,0-2.54-1.41V4.21l6.36,11.73a0.62,0.62,0,0,0,.42.14,0.14,0.14,0,0,0,.14-0.14V4.21a6.09,6.09,0,0,0,1.7-.71A2.35,2.35,0,0,0,43.11.71,1.49,1.49,0,0,1,41.84,2a2.48,2.48,0,0,1-1.7-.85L37.76,3.92,37.9,4.06l0.71-.85a3.2,3.2,0,0,0,2.12,1V11L35.9,2.37A2.38,2.38,0,0,0,33.76,1a2.27,2.27,0,0,0-2.12,2,2.57,2.57,0,0,0,0,1.27s0.14-1.13.85-1.13a1.56,1.56,0,0,1,1.27,1V6.61c-0.71,0-2.4,0-2.4,1.84A2.66,2.66,0,0,0,32.07,10a1.68,1.68,0,0,0,.85.28,0.78,0.78,0,0,1-.42-0.85A1,1,0,0,1,33.76,9v3.53a3.23,3.23,0,0,0-3,1.41,2.36,2.36,0,0,0,.14,2.54,2.33,2.33,0,0,0,2.54,1H33.5ZM47.07,5.76s-1.31.85-2.31,1.42l-2,1v5.53l-0.85.57,0.14,0.14,0.85-.57L45.16,16l4.31-3.26-0.14-.14-2.26,1.84-1.84-1.84V12L48.9,9.15,47.07,5.76h0Zm0,4.52-1.84,1.43V7l1.84,3.25h0Zm5.8,5.65-2.11-1.69-0.85.71-0.15-.14,1-.71V9.44c0-2-1.84-1.41-1.7-3.53a2.41,2.41,0,0,1,1.4-1.85,3.74,3.74,0,0,1,1-.14,1.29,1.29,0,0,0-.7,1.28C51,6.33,53,6.33,53.16,7.88v5.37l1.41,1.13L55,14.1V8.3l-0.85-.71,2-1.84L58,7.45l-0.71.71v5.09l1.81,1.46,0.28-.14V8.3l-0.85-.71,2-1.84,2,1.55,0.71-.71,0.1,0.12-1.7,1.55v4.95l-4.38,2.68L55,14.19l-2.12,1.7h0v0Zm89-10.18s-1.41.85-2.26,1.41l-2,1v5.55l-0.85.57,0.14,0.14,0.71-.57L140,16l4.3-3.26-0.14-.14-2.26,1.84-2-1.84V12l3.85-2.82-1.84-3.39h0Zm0,4.52-2,1.41V7l2,3.25h0ZM122.41,8.16h0.14l0.71-.57,1.13,1.27v4.52l-0.57.42,1.84,2.12,1.84-1.84-0.74-.83V7.88l0.42-.42L128.45,9v4.52l-0.42.42,1.7,1.84,1.84-1.7-0.71-.71V7.88l0.42-.42L132.76,9v4.38l-0.42.42,1.84,2.12,2.54-2.4-0.14-.14L136,14l-1-1V7.88l0.85-.71V7l-1,.71-1.7-1.84-2.4,1.81-1.7-1.84-2.41,1.84L125,5.87ZM117.32,8h0L118,7.45l1,1.27v5.09l-0.71.71,0.13,0.19,0.71-.71,1.7,2,2.4-2.12-0.15-.17-0.71.57-1-1.13V8l0.85-.71V7.17l-0.85.71-1.7-2ZM118,3.64l1.73-1.55,1.55,1.55-1.84,1.7Zm-2.55-3.53a2.45,2.45,0,0,1,1.7.71,2.33,2.33,0,0,1,.42,2,2.39,2.39,0,0,1-1,1.41,3,3,0,0,1-1.41.42V7.31l1.27,1.13-1.27,1v3.82a7.07,7.07,0,0,0,2.13-2.55l0.14-.28a6,6,0,0,1-.57,2.69,5,5,0,0,1-2,2.26,6.36,6.36,0,0,1-4.1.71,6.31,6.31,0,0,1-3.67-2.68,6.08,6.08,0,0,1-1-3.53,6.3,6.3,0,0,1,4.1-5.51,1.54,1.54,0,0,1,.85-0.14,1,1,0,0,0-.71.42,4.26,4.26,0,0,0-1.55,2L113,4.81v5.9l-3.39,1.7a3.81,3.81,0,0,0,2.54,1.41,3.41,3.41,0,0,0,2.68-.57V9.44l-1.27-1,1.27-1.13V4.63c-0.71-.14-1.55-0.42-2.12-0.57s-3.25-.85-3.67-0.85a1.11,1.11,0,0,0-1.13.14,1.6,1.6,0,0,0-.42,1.13,2,2,0,0,0,.42.57,1.1,1.1,0,0,1-.42-0.14,1.92,1.92,0,0,1-.78-1.55,2.45,2.45,0,0,1,1-2.26A3.22,3.22,0,0,1,110,.53,29.92,29.92,0,0,1,114.4,1.8a1.88,1.88,0,0,0,1.5-.09,0.6,0.6,0,0,0,.15-0.84h0a1.74,1.74,0,0,0-1.41-.75,0.89,0.89,0,0,1,.85,0h0Zm-4.95,11.73V6l-1.7.85a4.34,4.34,0,0,0-.42,2.4,5.69,5.69,0,0,0,1.13,3l1-.42h0v0Zm35.9,4.81a1.59,1.59,0,0,1-1.7-1.41c-0.28-1.27.57-2,1.84-3.39L145,10.58V7.88a11.43,11.43,0,0,0,2-1l1.7-1.13a1.84,1.84,0,0,0,1.41.71c1.13-.14,1.13-1,1-1.13,0.28,0.28.71,1.27-1.27,3.67l1.7,1.27v3.44A27.73,27.73,0,0,0,147.88,16s-1-1.27-1.84-.71-0.42,1.13.42,1.41h0ZM145,14.11a2.45,2.45,0,0,1,2.4-1.13,2.58,2.58,0,0,1,1.84,1.73V11.27l-1-.85c-1,1.13-3,2.68-3.25,3.67h0v0Zm2.26-7.21V9.58l0.85,0.85a10.74,10.74,0,0,0,2.68-3.11,2,2,0,0,1-2.12.85,2.42,2.42,0,0,1-1.41-1.27h0ZM85.51,8l0.71-.57h0.14l-0.71.71v5.37s-1.41.71-2.26,1.27l-2,1.13-2.54-2.12-0.57.57H78.16l0.71-.67V7.88h0a16.87,16.87,0,0,0,2.12-1c0.85-.57,1.84-1.13,1.84-1.13L85.52,8h0Zm-4.24,4.81,2,1.84V8.87L81.27,7v5.8h0Zm9.19-5.37L92,5.91a1.76,1.76,0,0,0,.42.28,1.07,1.07,0,0,0,1,.14A2.72,2.72,0,0,0,94,5.9a2.43,2.43,0,0,1-1.23,2.41A1.87,1.87,0,0,1,90.5,7.6v5.8l1.13,0.85,0.67-.54h0.14L89.9,16l-2-1.84-0.71.71-0.12-.13,1-1v-5L87.35,7.6l-0.71.57H86.5L89,5.91l1.42,1.55h0ZM97.1,10l2.83-4.24a2.38,2.38,0,0,0,1.13.57,1.93,1.93,0,0,0,1.7-.57c-0.14,1.13-.71,2.4-2,2.54a3,3,0,0,1-2-.71L98.62,8l4,6.08,0.85-.71,0.14,0.14-2.85,2.42L97.08,10h0ZM94.7,4.35c0-1-.42-1.55-1-1.55L97,0.71V13.25l0.8,0.85,0.57-.57,0.19,0.18L96,16l-1.7-1.7L93.57,15l-0.14-.14,1.27-1.13V4.35h0ZM68.13,4.06a1.06,1.06,0,0,0-.83-1.25l-0.17,0c-0.85-.14-1,1.13-1,1.13a2.16,2.16,0,0,1,.63-1.69,2.54,2.54,0,0,1,2.4-.85,2.06,2.06,0,0,1,1.7,2.12V15.23a2.85,2.85,0,0,0,.71.14,2.48,2.48,0,0,0,.71.14V1.38h0.14v2L75,1.26,77,3l0.8-.73H77.9l-1,.85V14a1.94,1.94,0,0,1-.85,1.84c-1.41,1-3.25-.14-4.95-0.28-1.13-.28-3-0.42-3.53.71A1,1,0,0,0,68,17.5c1.13,0.71,5.94-1.27,7.63-.42s1.56,1.7,1.27,2.54a2.94,2.94,0,0,1-2.26,1.7,1.34,1.34,0,0,0,.71-1.41c-0.14-.42-0.42-0.57-1.41-0.42-2.17.22-4.53,1.22-6.23,0.55a2.56,2.56,0,0,1-1.41-2.54c0-1.55,1.84-2.12,1.84-2.12V9.71a1.16,1.16,0,0,0-1.27.28,0.74,0.74,0,0,0,.37,1l0.05,0a1.75,1.75,0,0,1-1.13-.57,1.83,1.83,0,0,1,0-2.12,2,2,0,0,1,2-.85V4.06h0Zm4.24,11.59a1.67,1.67,0,0,0,1.27-.28,1.18,1.18,0,0,0,.57-1.13V9.86a1,1,0,0,0-.85-0.57,1.45,1.45,0,0,0-1,.57v5.8h0ZM74.21,4.06l-1.13-1-0.71.42v4.1a1.56,1.56,0,0,0,1,.42,1.06,1.06,0,0,0,.85-0.42V4.06h0Zm0,3.82a1.24,1.24,0,0,1-.85.28,2,2,0,0,1-1-.28v1.7a1.56,1.56,0,0,1,1-.42,1.06,1.06,0,0,1,.85.42V7.88h0Z" transform="translate(0.06 0)"/></svg>
